<svg width="21" height="21" viewBox="0 0 21 21" fill="none" xmlns="http://www.w3.org/2000/svg">
<path d="M15.9122 6.15216C16.5749 6.15216 17.1122 5.61491 17.1122 4.95218C17.1122 4.28945 16.5749 3.7522 15.9122 3.7522C15.2495 3.7522 14.7122 4.28945 14.7122 4.95218C14.7122 5.61491 15.2495 6.15216 15.9122 6.15216Z" fill="#3F5D97"/>
<path d="M10.5737 5.15454C9.55811 5.15454 8.56533 5.4557 7.72089 6.01993C6.87646 6.58416 6.21831 7.38613 5.82966 8.32441C5.44101 9.26269 5.33932 10.2952 5.53745 11.2912C5.73558 12.2873 6.22464 13.2023 6.94277 13.9204C7.6609 14.6385 8.57585 15.1276 9.57193 15.3257C10.568 15.5238 11.6005 15.4222 12.5387 15.0335C13.477 14.6449 14.279 13.9867 14.8432 13.1423C15.4075 12.2978 15.7086 11.305 15.7086 10.2895C15.7086 8.92759 15.1676 7.62151 14.2046 6.65852C13.2416 5.69554 11.9356 5.15454 10.5737 5.15454ZM10.5737 13.6227C9.91444 13.6227 9.26998 13.4272 8.72183 13.061C8.17368 12.6947 7.74644 12.1741 7.49415 11.565C7.24186 10.956 7.17585 10.2858 7.30447 9.63917C7.43308 8.99257 7.75055 8.39864 8.21672 7.93247C8.68288 7.46631 9.27682 7.14884 9.92341 7.02023C10.57 6.89161 11.2402 6.95762 11.8493 7.20991C12.4584 7.4622 12.979 7.88943 13.3452 8.43759C13.7115 8.98574 13.907 9.6302 13.907 10.2895C13.907 11.1735 13.5558 12.0213 12.9307 12.6464C12.3056 13.2716 11.4577 13.6227 10.5737 13.6227Z" fill="#3F5D97"/>
<path d="M10.5738 2.09216C13.2437 2.09216 13.5604 2.10216 14.6145 2.1505C15.2485 2.15802 15.8766 2.27444 16.4712 2.49466C16.9025 2.66107 17.2943 2.91594 17.6212 3.24288C17.9482 3.56982 18.2031 3.96158 18.3695 4.39296C18.5897 4.98756 18.7061 5.61557 18.7136 6.2496C18.762 7.30375 18.772 7.62041 18.772 10.2912C18.772 12.962 18.762 13.277 18.7136 14.3311C18.7061 14.9652 18.5897 15.5932 18.3695 16.1878C18.2031 16.6191 17.9482 17.0109 17.6212 17.3379C17.2943 17.6648 16.9025 17.9197 16.4712 18.0861C15.8766 18.3063 15.2485 18.4227 14.6145 18.4302C13.5604 18.4786 13.2437 18.4886 10.5738 18.4886C7.90379 18.4886 7.58713 18.4786 6.53298 18.4302C5.89896 18.4227 5.27094 18.3063 4.67635 18.0861C4.24497 17.9197 3.8532 17.6648 3.52627 17.3379C3.19933 17.0109 2.94445 16.6191 2.77804 16.1878C2.55782 15.5932 2.44141 14.9652 2.43388 14.3311C2.38555 13.277 2.37555 12.9603 2.37555 10.2904C2.37555 7.62041 2.38555 7.30375 2.43388 6.2496C2.44141 5.61557 2.55782 4.98756 2.77804 4.39296C2.94445 3.96158 3.19933 3.56982 3.52627 3.24288C3.8532 2.91594 4.24497 2.66107 4.67635 2.49466C5.27094 2.27444 5.89896 2.15802 6.53298 2.1505C7.58713 2.10216 7.90379 2.09216 10.5738 2.09216ZM10.5738 0.290527C7.85796 0.290527 7.51713 0.302194 6.45049 0.350526C5.62114 0.367273 4.80064 0.524498 4.02386 0.815519C3.35947 1.07243 2.75609 1.46532 2.2524 1.96902C1.74871 2.47271 1.35582 3.07609 1.09891 3.74047C0.807792 4.51752 0.650565 5.33831 0.633913 6.16793C0.58558 7.23458 0.573914 7.57374 0.573914 10.2904C0.573914 13.007 0.58558 13.347 0.633913 14.4136C0.650659 15.243 0.807884 16.0635 1.09891 16.8403C1.35582 17.5046 1.74871 18.108 2.2524 18.6117C2.75609 19.1154 3.35947 19.5083 4.02386 19.7652C4.80091 20.0563 5.6217 20.2136 6.45132 20.2302C7.51797 20.2785 7.85796 20.2902 10.5738 20.2902C13.2895 20.2902 13.6304 20.2785 14.697 20.2302C15.5266 20.2136 16.3474 20.0563 17.1245 19.7652C17.7889 19.5083 18.3922 19.1154 18.8959 18.6117C19.3996 18.108 19.7925 17.5046 20.0494 16.8403C20.3403 16.0632 20.4972 15.2424 20.5136 14.4128C20.5619 13.3461 20.5736 13.007 20.5736 10.2904C20.5736 7.57374 20.5619 7.23375 20.5136 6.1671C20.4968 5.33776 20.3396 4.51726 20.0486 3.74047C19.7917 3.07609 19.3988 2.47271 18.8951 1.96902C18.3914 1.46532 17.788 1.07243 17.1236 0.815519C16.3465 0.52469 15.5258 0.367745 14.6962 0.35136C13.6295 0.30136 13.2904 0.290527 10.5738 0.290527Z" fill="#3F5D97"/>
</svg>
