<svg width="17" height="21" viewBox="0 0 17 21" fill="none" xmlns="http://www.w3.org/2000/svg">
<path d="M8.96546 0.290527C4.85412 0.290527 0.791504 3.03121 0.791504 7.46694C0.791504 10.2878 2.37821 11.8905 3.33985 11.8905C3.73669 11.8905 3.96492 10.7846 3.96492 10.4724C3.96492 10.0999 3.01546 9.30624 3.01546 7.75543C3.01546 4.53393 5.46765 2.24971 8.64106 2.24971C11.3696 2.24971 13.389 3.80052 13.389 6.64954C13.389 8.77734 12.5357 12.7681 9.77067 12.7681C8.77313 12.7681 7.91919 12.0469 7.91919 11.0135C7.91919 9.49857 8.977 8.03238 8.977 6.4694C8.977 3.81719 5.21442 4.29801 5.21442 7.50348C5.21442 8.17663 5.2984 8.92158 5.59907 9.53511C5.04581 11.9155 3.9162 15.4614 3.9162 17.9136C3.9162 18.6707 4.02454 19.4163 4.09635 20.1734C4.23226 20.326 4.1643 20.31 4.37266 20.2337C6.39211 17.4687 6.3203 16.9282 7.23386 13.3099C7.72686 14.2478 9.00072 14.7523 10.0104 14.7523C14.2654 14.7523 16.1771 10.6051 16.1771 6.86687C16.1771 2.88824 12.7389 0.29181 8.96482 0.29181L8.96546 0.290527Z" fill="#3F5D97"/>
</svg>
