<svg width="25" height="21" viewBox="0 0 25 21" fill="none" xmlns="http://www.w3.org/2000/svg">
<path d="M24.9928 2.65955C24.3072 3.67936 23.4661 4.54869 22.4694 5.26756C22.4792 5.46036 22.4842 5.67827 22.4842 5.92129C22.4842 7.27157 22.2873 8.62349 21.8936 9.97704C21.4998 11.3306 20.8984 12.6262 20.0893 13.8638C19.2802 15.1015 18.3164 16.1979 17.1979 17.1531C16.0794 18.1084 14.7349 18.87 13.1644 19.4381C11.5939 20.0062 9.91078 20.2902 8.115 20.2902C5.31238 20.2902 2.73145 19.5336 0.372192 18.0204C0.790932 18.067 1.19254 18.0903 1.57701 18.0903C3.91837 18.0903 6.00958 17.3691 7.85065 15.9268C6.75897 15.9068 5.78129 15.5707 4.91761 14.9186C4.05394 14.2665 3.45957 13.4333 3.13453 12.4189C3.45581 12.4801 3.77291 12.5107 4.08583 12.5107C4.53625 12.5107 4.97945 12.452 5.41545 12.3345C4.25043 12.1011 3.28394 11.5209 2.516 10.5937C1.74808 9.66652 1.36412 8.59639 1.36412 7.38329V7.32077C2.07921 7.71671 2.84197 7.92732 3.6524 7.9526C2.96225 7.4925 2.41506 6.89251 2.01084 6.15265C1.6066 5.41278 1.40447 4.61211 1.40447 3.75065C1.40447 2.84209 1.63214 1.99605 2.08748 1.21253C3.35442 2.76726 4.88958 4.00986 6.69296 4.94031C8.49637 5.87077 10.4311 6.38752 12.4971 6.49056C12.409 6.12333 12.3648 5.7401 12.3647 5.34088C12.3647 3.94696 12.858 2.75675 13.8445 1.77026C14.8311 0.783772 16.0214 0.290527 17.4153 0.290527C18.8747 0.290527 20.1039 0.821925 21.1031 1.88472C22.2446 1.6586 23.3135 1.24962 24.3097 0.657761C23.9259 1.86561 23.1863 2.79738 22.0911 3.45307C23.0977 3.33345 24.065 3.06894 24.9928 2.65955H24.9928Z" fill="#3F5D97"/>
</svg>
